<svg width="120" height="48" viewBox="0 0 120 48" fill="none" xmlns="http://www.w3.org/2000/svg">
  <!-- N -->
  <path d="M8 36V12h5l10 16V12h4v24h-5L12 20v16H8z" fill="#0B0B10"/>
  
  <!-- R with lightning bolt -->
  <g>
    <path d="M35 36V12h11c3 0 5.5 1 7 2.5 1.5 1.5 2.5 3.5 2.5 6 0 2-0.5 3.5-1.5 5-1 1.5-2.5 2.5-4.5 3l6.5 7.5h-5.5l-6-7h-5v7H35z M39 25h7c1.5 0 2.5-0.5 3.5-1.5 1-1 1.5-2 1.5-3.5s-0.5-2.5-1.5-3.5c-1-1-2-1.5-3.5-1.5h-7V25z" fill="#0B0B10"/>
    <!-- Lightning bolt negative space -->
    <path d="M47 20l-3 5h2l-3 6 5-7h-2l3-4h-2z" fill="#28F27E"/>
  </g>
  
  <!-- G -->
  <path d="M67 37c-3.5 0-6.5-1.5-8.5-3.5C56.5 31.5 55 28.5 55 25s1.5-6.5 3.5-8.5C60.5 14.5 63.5 13 67 13c2.5 0 4.5 0.5 6.5 2 2 1.5 3 3 4 5l-4 2c-0.5-1.5-1.5-2.5-2.5-3.5-1-1-2.5-1.5-4-1.5-2 0-3.5 0.5-5 2-1.5 1.5-2 3-2 5.5s0.5 4 2 5.5c1.5 1.5 3 2 5 2 1 0 2-0.5 3-1 1-0.5 1.5-1.5 2-2.5V26h-7v-3h11v5c0 2-1 4-2.5 5.5C71.5 36 69.5 37 67 37z" fill="#0B0B10"/>
</svg>

